<mxfile host="app.diagrams.net" modified="2024-05-24T18:01:45.998Z" agent="Mozilla/5.0 (Macintosh; Intel Mac OS X 10_15_7) AppleWebKit/605.1.15 (KHTML, like Gecko) Version/17.2.1 Safari/605.1.15" etag="JKfDiwXjPY0Rrb3i2azM" version="24.4.8" type="device" pages="3">
  <diagram name="createLayout" id="pRf6i0LHLTCZpQiI_DwM">
    <mxGraphModel dx="1466" dy="989" grid="1" gridSize="10" guides="1" tooltips="1" connect="1" arrows="1" fold="1" page="1" pageScale="1" pageWidth="583" pageHeight="827" math="0" shadow="0">
      <root>
        <mxCell id="0" />
        <mxCell id="1" parent="0" />
        <mxCell id="HrNq1RXEkzK4dtEG1rQI-6" style="edgeStyle=orthogonalEdgeStyle;rounded=0;orthogonalLoop=1;jettySize=auto;html=1;exitX=0.5;exitY=1;exitDx=0;exitDy=0;exitPerimeter=0;entryX=0.5;entryY=0;entryDx=0;entryDy=0;endArrow=none;endFill=0;" parent="1" source="HrNq1RXEkzK4dtEG1rQI-1" target="HrNq1RXEkzK4dtEG1rQI-2" edge="1">
          <mxGeometry relative="1" as="geometry" />
        </mxCell>
        <mxCell id="HrNq1RXEkzK4dtEG1rQI-1" value="Начало" style="strokeWidth=1;html=1;shape=mxgraph.flowchart.terminator;whiteSpace=wrap;rounded=0;" parent="1" vertex="1">
          <mxGeometry x="110" y="90" width="190" height="60" as="geometry" />
        </mxCell>
        <mxCell id="HrNq1RXEkzK4dtEG1rQI-8" style="edgeStyle=orthogonalEdgeStyle;rounded=0;orthogonalLoop=1;jettySize=auto;html=1;exitX=0.5;exitY=1;exitDx=0;exitDy=0;endArrow=none;endFill=0;" parent="1" source="HrNq1RXEkzK4dtEG1rQI-2" target="HrNq1RXEkzK4dtEG1rQI-7" edge="1">
          <mxGeometry relative="1" as="geometry" />
        </mxCell>
        <mxCell id="HrNq1RXEkzK4dtEG1rQI-2" value="Получение содержимого XML-файла" style="rounded=0;whiteSpace=wrap;html=1;" parent="1" vertex="1">
          <mxGeometry x="110" y="180" width="190" height="60" as="geometry" />
        </mxCell>
        <mxCell id="HrNq1RXEkzK4dtEG1rQI-4" value="createLayout(xmlFile) -&amp;gt; rootView&lt;div&gt;&lt;br&gt;&lt;/div&gt;&lt;div&gt;где xmlFile - путь к XML-файлу,&lt;/div&gt;&lt;div&gt;rootView - корневое представление&lt;/div&gt;" style="strokeWidth=1;html=1;shape=mxgraph.flowchart.annotation_2;align=left;labelPosition=right;pointerEvents=1;rounded=0;" parent="1" vertex="1">
          <mxGeometry x="330" y="70" width="50" height="100" as="geometry" />
        </mxCell>
        <mxCell id="HrNq1RXEkzK4dtEG1rQI-5" style="edgeStyle=orthogonalEdgeStyle;rounded=0;orthogonalLoop=1;jettySize=auto;html=1;entryX=1;entryY=0.5;entryDx=0;entryDy=0;entryPerimeter=0;endArrow=none;endFill=0;dashed=1;dashPattern=8 8;" parent="1" source="HrNq1RXEkzK4dtEG1rQI-4" target="HrNq1RXEkzK4dtEG1rQI-1" edge="1">
          <mxGeometry relative="1" as="geometry" />
        </mxCell>
        <mxCell id="HrNq1RXEkzK4dtEG1rQI-10" style="edgeStyle=orthogonalEdgeStyle;rounded=0;orthogonalLoop=1;jettySize=auto;html=1;exitX=0.5;exitY=1;exitDx=0;exitDy=0;entryX=0.5;entryY=0;entryDx=0;entryDy=0;endArrow=none;endFill=0;" parent="1" source="HrNq1RXEkzK4dtEG1rQI-7" target="HrNq1RXEkzK4dtEG1rQI-9" edge="1">
          <mxGeometry relative="1" as="geometry" />
        </mxCell>
        <mxCell id="HrNq1RXEkzK4dtEG1rQI-7" value="Деление содержимого&amp;nbsp;&lt;div&gt;XML-файла на&amp;nbsp;&lt;/div&gt;&lt;div&gt;компоненты - список components&lt;/div&gt;" style="rounded=0;whiteSpace=wrap;html=1;" parent="1" vertex="1">
          <mxGeometry x="110" y="270" width="190" height="60" as="geometry" />
        </mxCell>
        <mxCell id="HrNq1RXEkzK4dtEG1rQI-75" style="edgeStyle=orthogonalEdgeStyle;orthogonalLoop=1;jettySize=auto;html=1;exitX=0.5;exitY=1;exitDx=0;exitDy=0;entryX=0.5;entryY=0;entryDx=0;entryDy=0;endArrow=none;endFill=0;" parent="1" source="HrNq1RXEkzK4dtEG1rQI-9" target="HrNq1RXEkzK4dtEG1rQI-73" edge="1">
          <mxGeometry relative="1" as="geometry" />
        </mxCell>
        <mxCell id="HrNq1RXEkzK4dtEG1rQI-9" value="Создание корневого представления rootView" style="rounded=0;whiteSpace=wrap;html=1;" parent="1" vertex="1">
          <mxGeometry x="110" y="360" width="190" height="60" as="geometry" />
        </mxCell>
        <mxCell id="HrNq1RXEkzK4dtEG1rQI-13" value="Конец" style="strokeWidth=1;html=1;shape=mxgraph.flowchart.terminator;whiteSpace=wrap;rounded=0;" parent="1" vertex="1">
          <mxGeometry x="110" y="630" width="190" height="60" as="geometry" />
        </mxCell>
        <mxCell id="HrNq1RXEkzK4dtEG1rQI-73" value="Вызов функции&amp;nbsp;&lt;div&gt;&lt;span style=&quot;text-align: left; white-space: nowrap;&quot;&gt;createView(&lt;/span&gt;rootView, components)&lt;/div&gt;" style="rounded=0;whiteSpace=wrap;html=1;" parent="1" vertex="1">
          <mxGeometry x="110" y="450" width="190" height="60" as="geometry" />
        </mxCell>
        <mxCell id="HrNq1RXEkzK4dtEG1rQI-74" style="edgeStyle=orthogonalEdgeStyle;orthogonalLoop=1;jettySize=auto;html=1;exitX=0.5;exitY=1;exitDx=0;exitDy=0;entryX=0.5;entryY=0;entryDx=0;entryDy=0;entryPerimeter=0;endArrow=none;endFill=0;" parent="1" source="HrNq1RXEkzK4dtEG1rQI-73" target="HrNq1RXEkzK4dtEG1rQI-13" edge="1">
          <mxGeometry relative="1" as="geometry" />
        </mxCell>
        <mxCell id="HrNq1RXEkzK4dtEG1rQI-80" value="Возврат rootView" style="rounded=0;whiteSpace=wrap;html=1;" parent="1" vertex="1">
          <mxGeometry x="110" y="540" width="190" height="60" as="geometry" />
        </mxCell>
      </root>
    </mxGraphModel>
  </diagram>
  <diagram id="B1b4RV2kDyPAAchN985o" name="createView">
    <mxGraphModel dx="2565" dy="1730" grid="1" gridSize="10" guides="1" tooltips="1" connect="1" arrows="1" fold="1" page="1" pageScale="1" pageWidth="1169" pageHeight="1654" math="0" shadow="0">
      <root>
        <mxCell id="0" />
        <mxCell id="1" parent="0" />
        <mxCell id="tq5i_mFXHTIIbHBCZC75-1" style="edgeStyle=orthogonalEdgeStyle;rounded=0;orthogonalLoop=1;jettySize=auto;html=1;exitX=0.5;exitY=1;exitDx=0;exitDy=0;exitPerimeter=0;entryX=0.5;entryY=0;entryDx=0;entryDy=0;endArrow=none;endFill=0;" parent="1" source="tq5i_mFXHTIIbHBCZC75-2" target="tq5i_mFXHTIIbHBCZC75-6" edge="1">
          <mxGeometry relative="1" as="geometry">
            <mxPoint x="440" y="220" as="targetPoint" />
            <Array as="points" />
          </mxGeometry>
        </mxCell>
        <mxCell id="tq5i_mFXHTIIbHBCZC75-2" value="Начало" style="strokeWidth=1;html=1;shape=mxgraph.flowchart.terminator;whiteSpace=wrap;rounded=0;" parent="1" vertex="1">
          <mxGeometry x="360" y="130" width="190" height="60" as="geometry" />
        </mxCell>
        <mxCell id="tq5i_mFXHTIIbHBCZC75-3" value="createView(rootView, components) -&amp;gt; index&lt;div&gt;&lt;br&gt;&lt;/div&gt;&lt;div&gt;где rootView - корневое представление,&lt;/div&gt;&lt;div&gt;components&amp;nbsp;- список компонентов XML-файла,&lt;/div&gt;&lt;div&gt;index - номер элемента, на котором окончилась обработка&lt;/div&gt;" style="strokeWidth=1;html=1;shape=mxgraph.flowchart.annotation_2;align=left;labelPosition=right;pointerEvents=1;rounded=0;" parent="1" vertex="1">
          <mxGeometry x="580" y="110" width="50" height="100" as="geometry" />
        </mxCell>
        <mxCell id="tq5i_mFXHTIIbHBCZC75-4" style="edgeStyle=orthogonalEdgeStyle;rounded=0;orthogonalLoop=1;jettySize=auto;html=1;entryX=1;entryY=0.5;entryDx=0;entryDy=0;entryPerimeter=0;endArrow=none;endFill=0;dashed=1;dashPattern=8 8;" parent="1" source="tq5i_mFXHTIIbHBCZC75-3" target="tq5i_mFXHTIIbHBCZC75-2" edge="1">
          <mxGeometry relative="1" as="geometry" />
        </mxCell>
        <mxCell id="tq5i_mFXHTIIbHBCZC75-5" style="edgeStyle=orthogonalEdgeStyle;orthogonalLoop=1;jettySize=auto;html=1;exitX=0.5;exitY=1;exitDx=0;exitDy=0;entryX=0.5;entryY=0;entryDx=0;entryDy=0;endArrow=none;endFill=0;" parent="1" source="tq5i_mFXHTIIbHBCZC75-6" target="tq5i_mFXHTIIbHBCZC75-9" edge="1">
          <mxGeometry relative="1" as="geometry" />
        </mxCell>
        <UserObject label="&lt;span style=&quot;caret-color: rgb(0, 0, 0); color: rgb(0, 0, 0); font-family: Helvetica; font-size: 12px; font-style: normal; font-variant-caps: normal; font-weight: 400; letter-spacing: normal; text-align: center; text-indent: 0px; text-transform: none; white-space: normal; word-spacing: 0px; -webkit-text-stroke-width: 0px; text-decoration: none; float: none; display: inline !important;&quot;&gt;Цикл i&amp;nbsp;&lt;/span&gt;&lt;div&gt;&lt;span style=&quot;caret-color: rgb(0, 0, 0); color: rgb(0, 0, 0); font-family: Helvetica; font-size: 12px; font-style: normal; font-variant-caps: normal; font-weight: 400; letter-spacing: normal; text-align: center; text-indent: 0px; text-transform: none; white-space: normal; word-spacing: 0px; -webkit-text-stroke-width: 0px; text-decoration: none; float: none; display: inline !important;&quot;&gt;от 0 до&amp;nbsp;&lt;/span&gt;&lt;span style=&quot;caret-color: rgb(0, 0, 0); color: rgb(0, 0, 0); font-family: Helvetica; font-size: 12px; font-style: normal; font-variant-caps: normal; font-weight: 400; letter-spacing: normal; orphans: auto; text-indent: 0px; text-transform: none; white-space: nowrap; widows: auto; word-spacing: 0px; -webkit-text-stroke-width: 0px; text-decoration: none; text-align: left;&quot;&gt;components.count&lt;/span&gt;&lt;/div&gt;" link="&lt;span style=&quot;caret-color: rgb(0, 0, 0); color: rgb(0, 0, 0); font-family: Helvetica; font-size: 12px; font-style: normal; font-variant-caps: normal; font-weight: 400; letter-spacing: normal; orphans: auto; text-align: center; text-indent: 0px; text-transform: none; white-space: normal; widows: auto; word-spacing: 0px; -webkit-text-stroke-width: 0px; background-color: rgb(251, 251, 251); text-decoration: none; display: inline !important; float: none;&quot;&gt;Цикл по i от 0 до&amp;nbsp;&lt;/span&gt;&lt;span style=&quot;caret-color: rgb(0, 0, 0); color: rgb(0, 0, 0); font-family: Helvetica; font-size: 12px; font-style: normal; font-variant-caps: normal; font-weight: 400; letter-spacing: normal; orphans: auto; text-indent: 0px; text-transform: none; white-space: nowrap; widows: auto; word-spacing: 0px; -webkit-text-stroke-width: 0px; text-decoration: none; text-align: left;&quot;&gt;components.count&lt;/span&gt;" id="tq5i_mFXHTIIbHBCZC75-6">
          <mxCell style="shape=loopLimit;whiteSpace=wrap;html=1;" parent="1" vertex="1">
            <mxGeometry x="360" y="310" width="190" height="60" as="geometry" />
          </mxCell>
        </UserObject>
        <mxCell id="tq5i_mFXHTIIbHBCZC75-7" style="edgeStyle=orthogonalEdgeStyle;orthogonalLoop=1;jettySize=auto;html=1;exitX=1;exitY=0.5;exitDx=0;exitDy=0;entryX=0.5;entryY=0;entryDx=0;entryDy=0;rounded=0;curved=0;endArrow=none;endFill=0;" parent="1" source="tq5i_mFXHTIIbHBCZC75-9" target="tq5i_mFXHTIIbHBCZC75-14" edge="1">
          <mxGeometry relative="1" as="geometry" />
        </mxCell>
        <mxCell id="tq5i_mFXHTIIbHBCZC75-8" style="edgeStyle=orthogonalEdgeStyle;orthogonalLoop=1;jettySize=auto;html=1;exitX=0;exitY=0.5;exitDx=0;exitDy=0;rounded=0;curved=0;endArrow=none;endFill=0;" parent="1" source="tq5i_mFXHTIIbHBCZC75-9" target="tq5i_mFXHTIIbHBCZC75-18" edge="1">
          <mxGeometry relative="1" as="geometry">
            <Array as="points">
              <mxPoint x="180" y="450" />
              <mxPoint x="180" y="1240" />
              <mxPoint x="455" y="1240" />
            </Array>
          </mxGeometry>
        </mxCell>
        <mxCell id="tq5i_mFXHTIIbHBCZC75-9" value="Компонент i содержится&amp;nbsp;&lt;div&gt;в списке UI-элементов?&lt;/div&gt;" style="rhombus;whiteSpace=wrap;html=1;" parent="1" vertex="1">
          <mxGeometry x="360" y="400" width="190" height="100" as="geometry" />
        </mxCell>
        <mxCell id="tq5i_mFXHTIIbHBCZC75-10" style="edgeStyle=orthogonalEdgeStyle;orthogonalLoop=1;jettySize=auto;html=1;exitX=0;exitY=0.5;exitDx=0;exitDy=0;entryX=0.5;entryY=0;entryDx=0;entryDy=0;rounded=0;curved=0;endArrow=none;endFill=0;" parent="1" source="tq5i_mFXHTIIbHBCZC75-12" target="tq5i_mFXHTIIbHBCZC75-21" edge="1">
          <mxGeometry relative="1" as="geometry" />
        </mxCell>
        <mxCell id="tq5i_mFXHTIIbHBCZC75-11" style="edgeStyle=orthogonalEdgeStyle;orthogonalLoop=1;jettySize=auto;html=1;exitX=1;exitY=0.5;exitDx=0;exitDy=0;entryX=0.5;entryY=0;entryDx=0;entryDy=0;endArrow=none;endFill=0;rounded=0;curved=0;" parent="1" source="tq5i_mFXHTIIbHBCZC75-12" target="tq5i_mFXHTIIbHBCZC75-36" edge="1">
          <mxGeometry relative="1" as="geometry" />
        </mxCell>
        <mxCell id="tq5i_mFXHTIIbHBCZC75-12" value="Компонент j&amp;nbsp;&lt;div&gt;&lt;div&gt;является завершающим&amp;nbsp;&lt;/div&gt;&lt;div&gt;для UI-элемента?&lt;/div&gt;&lt;/div&gt;" style="rhombus;whiteSpace=wrap;html=1;" parent="1" vertex="1">
          <mxGeometry x="780" y="700" width="190" height="100" as="geometry" />
        </mxCell>
        <mxCell id="tq5i_mFXHTIIbHBCZC75-13" style="edgeStyle=orthogonalEdgeStyle;orthogonalLoop=1;jettySize=auto;html=1;exitX=0.5;exitY=1;exitDx=0;exitDy=0;entryX=0.5;entryY=0;entryDx=0;entryDy=0;endArrow=none;endFill=0;" parent="1" source="tq5i_mFXHTIIbHBCZC75-14" target="tq5i_mFXHTIIbHBCZC75-16" edge="1">
          <mxGeometry relative="1" as="geometry" />
        </mxCell>
        <mxCell id="tq5i_mFXHTIIbHBCZC75-14" value="Создание UI-элемента&amp;nbsp;&lt;div&gt;element&lt;/div&gt;" style="rounded=0;whiteSpace=wrap;html=1;" parent="1" vertex="1">
          <mxGeometry x="780" y="520" width="190" height="60" as="geometry" />
        </mxCell>
        <mxCell id="tq5i_mFXHTIIbHBCZC75-15" style="edgeStyle=orthogonalEdgeStyle;orthogonalLoop=1;jettySize=auto;html=1;exitX=0.5;exitY=1;exitDx=0;exitDy=0;endArrow=none;endFill=0;" parent="1" source="tq5i_mFXHTIIbHBCZC75-16" target="tq5i_mFXHTIIbHBCZC75-12" edge="1">
          <mxGeometry relative="1" as="geometry" />
        </mxCell>
        <mxCell id="tq5i_mFXHTIIbHBCZC75-16" value="j = i + 1" style="rounded=0;whiteSpace=wrap;html=1;" parent="1" vertex="1">
          <mxGeometry x="780" y="610" width="190" height="60" as="geometry" />
        </mxCell>
        <mxCell id="tq5i_mFXHTIIbHBCZC75-17" style="edgeStyle=orthogonalEdgeStyle;orthogonalLoop=1;jettySize=auto;html=1;exitX=0.5;exitY=0;exitDx=0;exitDy=0;entryX=0.5;entryY=0;entryDx=0;entryDy=0;endArrow=none;endFill=0;" parent="1" source="tq5i_mFXHTIIbHBCZC75-18" target="tq5i_mFXHTIIbHBCZC75-38" edge="1">
          <mxGeometry relative="1" as="geometry" />
        </mxCell>
        <UserObject label="&lt;div&gt;&lt;span style=&quot;caret-color: rgb(0, 0, 0); color: rgb(0, 0, 0); font-family: Helvetica; font-size: 12px; font-style: normal; font-variant-caps: normal; font-weight: 400; letter-spacing: normal; text-align: center; text-indent: 0px; text-transform: none; white-space: normal; word-spacing: 0px; -webkit-text-stroke-width: 0px; text-decoration: none; float: none; display: inline !important;&quot;&gt;Увеличить i на 1&lt;/span&gt;&lt;/div&gt;&lt;span style=&quot;caret-color: rgb(0, 0, 0); color: rgb(0, 0, 0); font-family: Helvetica; font-size: 12px; font-style: normal; font-variant-caps: normal; font-weight: 400; letter-spacing: normal; text-align: center; text-indent: 0px; text-transform: none; white-space: normal; word-spacing: 0px; -webkit-text-stroke-width: 0px; text-decoration: none; float: none; display: inline !important;&quot;&gt;Цикл i&amp;nbsp;&lt;/span&gt;" link="&lt;span style=&quot;caret-color: rgb(0, 0, 0); color: rgb(0, 0, 0); font-family: Helvetica; font-size: 12px; font-style: normal; font-variant-caps: normal; font-weight: 400; letter-spacing: normal; orphans: auto; text-align: center; text-indent: 0px; text-transform: none; white-space: normal; widows: auto; word-spacing: 0px; -webkit-text-stroke-width: 0px; background-color: rgb(251, 251, 251); text-decoration: none; display: inline !important; float: none;&quot;&gt;Цикл по i от 0 до&amp;nbsp;&lt;/span&gt;&lt;span style=&quot;caret-color: rgb(0, 0, 0); color: rgb(0, 0, 0); font-family: Helvetica; font-size: 12px; font-style: normal; font-variant-caps: normal; font-weight: 400; letter-spacing: normal; orphans: auto; text-indent: 0px; text-transform: none; white-space: nowrap; widows: auto; word-spacing: 0px; -webkit-text-stroke-width: 0px; text-decoration: none; text-align: left;&quot;&gt;components.count&lt;/span&gt;" id="tq5i_mFXHTIIbHBCZC75-18">
          <mxCell style="shape=loopLimit;whiteSpace=wrap;html=1;direction=west;" parent="1" vertex="1">
            <mxGeometry x="360" y="1360" width="190" height="60" as="geometry" />
          </mxCell>
        </UserObject>
        <mxCell id="tq5i_mFXHTIIbHBCZC75-19" style="edgeStyle=orthogonalEdgeStyle;orthogonalLoop=1;jettySize=auto;html=1;exitX=0.5;exitY=1;exitDx=0;exitDy=0;entryX=0.5;entryY=0;entryDx=0;entryDy=0;rounded=0;curved=0;endArrow=none;endFill=0;" parent="1" source="tq5i_mFXHTIIbHBCZC75-20" target="tq5i_mFXHTIIbHBCZC75-24" edge="1">
          <mxGeometry relative="1" as="geometry">
            <mxPoint x="875" y="980" as="sourcePoint" />
            <mxPoint x="685" y="1050" as="targetPoint" />
            <Array as="points">
              <mxPoint x="885" y="1110" />
              <mxPoint x="685" y="1110" />
            </Array>
          </mxGeometry>
        </mxCell>
        <mxCell id="tq5i_mFXHTIIbHBCZC75-20" value="Назначение атрибуту&amp;nbsp;&lt;div&gt;UI-элемента значения, соответствующего&amp;nbsp;&lt;/div&gt;&lt;div&gt;components[j + 1]&lt;/div&gt;" style="rounded=0;whiteSpace=wrap;html=1;" parent="1" vertex="1">
          <mxGeometry x="790" y="1020" width="190" height="60" as="geometry" />
        </mxCell>
        <mxCell id="tq5i_mFXHTIIbHBCZC75-21" value="Компонент j&amp;nbsp;&lt;div&gt;содержится&amp;nbsp;&lt;div&gt;в списке атрибутов&amp;nbsp;&lt;/div&gt;&lt;div&gt;UI-элемента?&lt;/div&gt;&lt;/div&gt;" style="rhombus;whiteSpace=wrap;html=1;" parent="1" vertex="1">
          <mxGeometry x="590" y="800" width="190" height="100" as="geometry" />
        </mxCell>
        <mxCell id="tq5i_mFXHTIIbHBCZC75-22" value="Да" style="text;html=1;align=center;verticalAlign=middle;resizable=0;points=[];autosize=1;strokeColor=none;fillColor=none;" parent="1" vertex="1">
          <mxGeometry x="710" y="425" width="40" height="30" as="geometry" />
        </mxCell>
        <mxCell id="tq5i_mFXHTIIbHBCZC75-23" style="edgeStyle=orthogonalEdgeStyle;orthogonalLoop=1;jettySize=auto;html=1;endArrow=none;endFill=0;rounded=0;curved=0;exitX=0;exitY=0.5;exitDx=0;exitDy=0;" parent="1" source="tq5i_mFXHTIIbHBCZC75-24" edge="1">
          <mxGeometry relative="1" as="geometry">
            <mxPoint x="870" y="690" as="targetPoint" />
            <Array as="points">
              <mxPoint x="310" y="1180" />
              <mxPoint x="310" y="690" />
            </Array>
          </mxGeometry>
        </mxCell>
        <mxCell id="tq5i_mFXHTIIbHBCZC75-24" value="j = j + 1" style="rounded=0;whiteSpace=wrap;html=1;" parent="1" vertex="1">
          <mxGeometry x="590" y="1150" width="190" height="60" as="geometry" />
        </mxCell>
        <mxCell id="tq5i_mFXHTIIbHBCZC75-25" value="" style="edgeStyle=orthogonalEdgeStyle;orthogonalLoop=1;jettySize=auto;html=1;exitX=0;exitY=0.5;exitDx=0;exitDy=0;entryX=0.5;entryY=0;entryDx=0;entryDy=0;rounded=0;curved=0;endArrow=none;endFill=0;" parent="1" source="tq5i_mFXHTIIbHBCZC75-21" target="tq5i_mFXHTIIbHBCZC75-28" edge="1">
          <mxGeometry relative="1" as="geometry">
            <mxPoint x="590" y="850" as="sourcePoint" />
            <mxPoint x="685" y="1040" as="targetPoint" />
            <Array as="points" />
          </mxGeometry>
        </mxCell>
        <mxCell id="tq5i_mFXHTIIbHBCZC75-26" style="edgeStyle=orthogonalEdgeStyle;orthogonalLoop=1;jettySize=auto;html=1;exitX=1;exitY=0.5;exitDx=0;exitDy=0;rounded=0;curved=0;endArrow=none;endFill=0;" parent="1" source="tq5i_mFXHTIIbHBCZC75-28" target="tq5i_mFXHTIIbHBCZC75-32" edge="1">
          <mxGeometry relative="1" as="geometry" />
        </mxCell>
        <mxCell id="tq5i_mFXHTIIbHBCZC75-27" style="edgeStyle=orthogonalEdgeStyle;orthogonalLoop=1;jettySize=auto;html=1;exitX=0;exitY=0.5;exitDx=0;exitDy=0;endArrow=none;endFill=0;rounded=0;curved=0;entryX=0.5;entryY=0;entryDx=0;entryDy=0;" parent="1" source="tq5i_mFXHTIIbHBCZC75-28" target="tq5i_mFXHTIIbHBCZC75-24" edge="1">
          <mxGeometry relative="1" as="geometry">
            <mxPoint x="680" y="1140" as="targetPoint" />
            <Array as="points">
              <mxPoint x="350" y="930" />
              <mxPoint x="350" y="1070" />
              <mxPoint x="500" y="1070" />
              <mxPoint x="500" y="1110" />
              <mxPoint x="685" y="1110" />
            </Array>
          </mxGeometry>
        </mxCell>
        <mxCell id="tq5i_mFXHTIIbHBCZC75-28" value="Компонент j содержится&amp;nbsp;&lt;div&gt;в списке UI-элементов?&lt;/div&gt;" style="rhombus;whiteSpace=wrap;html=1;" parent="1" vertex="1">
          <mxGeometry x="400" y="880" width="190" height="100" as="geometry" />
        </mxCell>
        <mxCell id="tq5i_mFXHTIIbHBCZC75-29" value="Да" style="text;html=1;align=center;verticalAlign=middle;resizable=0;points=[];autosize=1;strokeColor=none;fillColor=none;" parent="1" vertex="1">
          <mxGeometry x="810" y="828" width="40" height="30" as="geometry" />
        </mxCell>
        <mxCell id="tq5i_mFXHTIIbHBCZC75-30" value="Да" style="text;html=1;align=center;verticalAlign=middle;resizable=0;points=[];autosize=1;strokeColor=none;fillColor=none;" parent="1" vertex="1">
          <mxGeometry x="1000" y="728" width="40" height="30" as="geometry" />
        </mxCell>
        <mxCell id="tq5i_mFXHTIIbHBCZC75-31" style="edgeStyle=orthogonalEdgeStyle;orthogonalLoop=1;jettySize=auto;html=1;exitX=0.5;exitY=1;exitDx=0;exitDy=0;rounded=0;curved=0;endArrow=none;endFill=0;" parent="1" source="tq5i_mFXHTIIbHBCZC75-32" target="tq5i_mFXHTIIbHBCZC75-24" edge="1">
          <mxGeometry relative="1" as="geometry">
            <Array as="points">
              <mxPoint x="675" y="1070" />
              <mxPoint x="500" y="1070" />
              <mxPoint x="500" y="1110" />
              <mxPoint x="685" y="1110" />
            </Array>
          </mxGeometry>
        </mxCell>
        <mxCell id="tq5i_mFXHTIIbHBCZC75-32" value="&lt;span style=&quot;text-align: left; white-space: nowrap;&quot;&gt;j = createView(&lt;/span&gt;element,&amp;nbsp;&lt;div&gt;components&lt;/div&gt;&lt;div&gt;[j...&amp;nbsp;components.count])&lt;/div&gt;" style="shape=process;whiteSpace=wrap;html=1;backgroundOutline=1;" parent="1" vertex="1">
          <mxGeometry x="580" y="980" width="190" height="60" as="geometry" />
        </mxCell>
        <mxCell id="tq5i_mFXHTIIbHBCZC75-33" value="Да" style="text;html=1;align=center;verticalAlign=middle;resizable=0;points=[];autosize=1;strokeColor=none;fillColor=none;" parent="1" vertex="1">
          <mxGeometry x="610" y="908" width="40" height="30" as="geometry" />
        </mxCell>
        <mxCell id="tq5i_mFXHTIIbHBCZC75-34" value="Инициализация возвращаемой переменной finalIndex&amp;nbsp;" style="rounded=0;whiteSpace=wrap;html=1;" parent="1" vertex="1">
          <mxGeometry x="360" y="220" width="190" height="60" as="geometry" />
        </mxCell>
        <mxCell id="tq5i_mFXHTIIbHBCZC75-35" style="edgeStyle=orthogonalEdgeStyle;orthogonalLoop=1;jettySize=auto;html=1;exitX=0.5;exitY=1;exitDx=0;exitDy=0;entryX=0.5;entryY=1;entryDx=0;entryDy=0;rounded=0;curved=0;endArrow=none;endFill=0;" parent="1" source="tq5i_mFXHTIIbHBCZC75-36" target="tq5i_mFXHTIIbHBCZC75-18" edge="1">
          <mxGeometry relative="1" as="geometry">
            <Array as="points">
              <mxPoint x="1065" y="1240" />
              <mxPoint x="455" y="1240" />
            </Array>
          </mxGeometry>
        </mxCell>
        <mxCell id="tq5i_mFXHTIIbHBCZC75-36" value="finalIndex = j" style="rounded=0;whiteSpace=wrap;html=1;" parent="1" vertex="1">
          <mxGeometry x="970" y="800" width="190" height="60" as="geometry" />
        </mxCell>
        <mxCell id="tq5i_mFXHTIIbHBCZC75-37" value="Конец" style="strokeWidth=1;html=1;shape=mxgraph.flowchart.terminator;whiteSpace=wrap;rounded=0;" parent="1" vertex="1">
          <mxGeometry x="360" y="1540" width="190" height="60" as="geometry" />
        </mxCell>
        <mxCell id="tq5i_mFXHTIIbHBCZC75-38" value="Возврат finalIndex" style="rounded=0;whiteSpace=wrap;html=1;" parent="1" vertex="1">
          <mxGeometry x="360" y="1450" width="190" height="60" as="geometry" />
        </mxCell>
        <mxCell id="tq5i_mFXHTIIbHBCZC75-39" style="edgeStyle=orthogonalEdgeStyle;orthogonalLoop=1;jettySize=auto;html=1;exitX=0.5;exitY=1;exitDx=0;exitDy=0;entryX=0.5;entryY=0;entryDx=0;entryDy=0;entryPerimeter=0;endArrow=none;endFill=0;" parent="1" source="tq5i_mFXHTIIbHBCZC75-38" target="tq5i_mFXHTIIbHBCZC75-37" edge="1">
          <mxGeometry relative="1" as="geometry" />
        </mxCell>
        <mxCell id="tq5i_mFXHTIIbHBCZC75-40" value="" style="edgeStyle=orthogonalEdgeStyle;orthogonalLoop=1;jettySize=auto;html=1;exitX=1;exitY=0.5;exitDx=0;exitDy=0;entryX=0.5;entryY=0;entryDx=0;entryDy=0;rounded=0;curved=0;endArrow=none;endFill=0;" parent="1" source="tq5i_mFXHTIIbHBCZC75-21" target="tq5i_mFXHTIIbHBCZC75-42" edge="1">
          <mxGeometry relative="1" as="geometry">
            <mxPoint x="780" y="850" as="sourcePoint" />
            <mxPoint x="875" y="980" as="targetPoint" />
          </mxGeometry>
        </mxCell>
        <mxCell id="tq5i_mFXHTIIbHBCZC75-41" style="edgeStyle=orthogonalEdgeStyle;orthogonalLoop=1;jettySize=auto;html=1;exitX=0.5;exitY=1;exitDx=0;exitDy=0;endArrow=none;endFill=0;" parent="1" source="tq5i_mFXHTIIbHBCZC75-42" target="tq5i_mFXHTIIbHBCZC75-20" edge="1">
          <mxGeometry relative="1" as="geometry" />
        </mxCell>
        <mxCell id="tq5i_mFXHTIIbHBCZC75-42" value="j = j + 1" style="rounded=0;whiteSpace=wrap;html=1;" parent="1" vertex="1">
          <mxGeometry x="790" y="900" width="190" height="60" as="geometry" />
        </mxCell>
        <mxCell id="tq5i_mFXHTIIbHBCZC75-43" value="Размещение&amp;nbsp;&lt;div&gt;UI-элемента element&amp;nbsp;&lt;div&gt;на корневом представлении rootView&lt;/div&gt;&lt;/div&gt;" style="rounded=0;whiteSpace=wrap;html=1;" parent="1" vertex="1">
          <mxGeometry x="360" y="1270" width="190" height="60" as="geometry" />
        </mxCell>
      </root>
    </mxGraphModel>
  </diagram>
  <diagram id="fBs8tSxMzE3DuDyHiVNS" name="createView for pres">
    <mxGraphModel dx="1710" dy="1153" grid="1" gridSize="10" guides="1" tooltips="1" connect="1" arrows="1" fold="1" page="1" pageScale="1" pageWidth="1270" pageHeight="700" math="0" shadow="0">
      <root>
        <mxCell id="0" />
        <mxCell id="1" parent="0" />
        <mxCell id="B4XOV4r2v7aRoxTcEQ_I-1" style="edgeStyle=orthogonalEdgeStyle;rounded=0;orthogonalLoop=1;jettySize=auto;html=1;exitX=0.5;exitY=1;exitDx=0;exitDy=0;exitPerimeter=0;entryX=0.5;entryY=0;entryDx=0;entryDy=0;endArrow=none;endFill=0;" edge="1" parent="1" source="B4XOV4r2v7aRoxTcEQ_I-2" target="B4XOV4r2v7aRoxTcEQ_I-6">
          <mxGeometry relative="1" as="geometry">
            <mxPoint x="140" y="160" as="targetPoint" />
            <Array as="points" />
          </mxGeometry>
        </mxCell>
        <mxCell id="B4XOV4r2v7aRoxTcEQ_I-2" value="Начало" style="strokeWidth=1;html=1;shape=mxgraph.flowchart.terminator;whiteSpace=wrap;rounded=0;" vertex="1" parent="1">
          <mxGeometry x="60" y="70" width="190" height="60" as="geometry" />
        </mxCell>
        <mxCell id="B4XOV4r2v7aRoxTcEQ_I-3" value="createView(rootView, components) -&amp;gt; index&lt;div&gt;&lt;br&gt;&lt;/div&gt;&lt;div&gt;где rootView - корневое представление,&lt;/div&gt;&lt;div&gt;components&amp;nbsp;- список&amp;nbsp;&lt;/div&gt;&lt;div&gt;&lt;span style=&quot;white-space: pre;&quot;&gt;&#x9;&lt;/span&gt;&lt;span style=&quot;white-space: pre;&quot;&gt;&#x9;&lt;/span&gt;компонентов XML-файла,&lt;/div&gt;&lt;div&gt;index - номер элемента,&amp;nbsp;&lt;/div&gt;&lt;div&gt;&lt;span style=&quot;white-space: pre;&quot;&gt;&#x9;&lt;/span&gt;на котором окончилась обработка&lt;/div&gt;" style="strokeWidth=1;html=1;shape=mxgraph.flowchart.annotation_2;align=left;labelPosition=right;pointerEvents=1;rounded=0;" vertex="1" parent="1">
          <mxGeometry x="280" y="30" width="50" height="140" as="geometry" />
        </mxCell>
        <mxCell id="B4XOV4r2v7aRoxTcEQ_I-4" style="edgeStyle=orthogonalEdgeStyle;rounded=0;orthogonalLoop=1;jettySize=auto;html=1;entryX=1;entryY=0.5;entryDx=0;entryDy=0;entryPerimeter=0;endArrow=none;endFill=0;dashed=1;dashPattern=8 8;" edge="1" parent="1" source="B4XOV4r2v7aRoxTcEQ_I-3" target="B4XOV4r2v7aRoxTcEQ_I-2">
          <mxGeometry relative="1" as="geometry" />
        </mxCell>
        <mxCell id="B4XOV4r2v7aRoxTcEQ_I-5" style="edgeStyle=orthogonalEdgeStyle;orthogonalLoop=1;jettySize=auto;html=1;exitX=0.5;exitY=1;exitDx=0;exitDy=0;entryX=0.5;entryY=0;entryDx=0;entryDy=0;endArrow=none;endFill=0;" edge="1" parent="1" source="B4XOV4r2v7aRoxTcEQ_I-6" target="B4XOV4r2v7aRoxTcEQ_I-9">
          <mxGeometry relative="1" as="geometry" />
        </mxCell>
        <UserObject label="&lt;span style=&quot;caret-color: rgb(0, 0, 0); color: rgb(0, 0, 0); font-family: Helvetica; font-size: 12px; font-style: normal; font-variant-caps: normal; font-weight: 400; letter-spacing: normal; text-align: center; text-indent: 0px; text-transform: none; white-space: normal; word-spacing: 0px; -webkit-text-stroke-width: 0px; text-decoration: none; float: none; display: inline !important;&quot;&gt;Цикл i&amp;nbsp;&lt;/span&gt;&lt;div&gt;&lt;span style=&quot;caret-color: rgb(0, 0, 0); color: rgb(0, 0, 0); font-family: Helvetica; font-size: 12px; font-style: normal; font-variant-caps: normal; font-weight: 400; letter-spacing: normal; text-align: center; text-indent: 0px; text-transform: none; white-space: normal; word-spacing: 0px; -webkit-text-stroke-width: 0px; text-decoration: none; float: none; display: inline !important;&quot;&gt;от 0 до&amp;nbsp;&lt;/span&gt;&lt;span style=&quot;caret-color: rgb(0, 0, 0); color: rgb(0, 0, 0); font-family: Helvetica; font-size: 12px; font-style: normal; font-variant-caps: normal; font-weight: 400; letter-spacing: normal; orphans: auto; text-indent: 0px; text-transform: none; white-space: nowrap; widows: auto; word-spacing: 0px; -webkit-text-stroke-width: 0px; text-decoration: none; text-align: left;&quot;&gt;components.count&lt;/span&gt;&lt;/div&gt;" link="&lt;span style=&quot;caret-color: rgb(0, 0, 0); color: rgb(0, 0, 0); font-family: Helvetica; font-size: 12px; font-style: normal; font-variant-caps: normal; font-weight: 400; letter-spacing: normal; orphans: auto; text-align: center; text-indent: 0px; text-transform: none; white-space: normal; widows: auto; word-spacing: 0px; -webkit-text-stroke-width: 0px; background-color: rgb(251, 251, 251); text-decoration: none; display: inline !important; float: none;&quot;&gt;Цикл по i от 0 до&amp;nbsp;&lt;/span&gt;&lt;span style=&quot;caret-color: rgb(0, 0, 0); color: rgb(0, 0, 0); font-family: Helvetica; font-size: 12px; font-style: normal; font-variant-caps: normal; font-weight: 400; letter-spacing: normal; orphans: auto; text-indent: 0px; text-transform: none; white-space: nowrap; widows: auto; word-spacing: 0px; -webkit-text-stroke-width: 0px; text-decoration: none; text-align: left;&quot;&gt;components.count&lt;/span&gt;" id="B4XOV4r2v7aRoxTcEQ_I-6">
          <mxCell style="shape=loopLimit;whiteSpace=wrap;html=1;" vertex="1" parent="1">
            <mxGeometry x="60" y="230" width="190" height="60" as="geometry" />
          </mxCell>
        </UserObject>
        <mxCell id="B4XOV4r2v7aRoxTcEQ_I-47" style="edgeStyle=orthogonalEdgeStyle;rounded=0;orthogonalLoop=1;jettySize=auto;html=1;exitX=1;exitY=0.5;exitDx=0;exitDy=0;entryX=0.5;entryY=0;entryDx=0;entryDy=0;endArrow=none;endFill=0;" edge="1" parent="1" source="B4XOV4r2v7aRoxTcEQ_I-9" target="B4XOV4r2v7aRoxTcEQ_I-46">
          <mxGeometry relative="1" as="geometry" />
        </mxCell>
        <mxCell id="B4XOV4r2v7aRoxTcEQ_I-9" value="Компонент i содержится&amp;nbsp;&lt;div&gt;в списке UI-элементов?&lt;/div&gt;" style="rhombus;whiteSpace=wrap;html=1;" vertex="1" parent="1">
          <mxGeometry x="60" y="310" width="190" height="100" as="geometry" />
        </mxCell>
        <mxCell id="B4XOV4r2v7aRoxTcEQ_I-10" style="edgeStyle=orthogonalEdgeStyle;orthogonalLoop=1;jettySize=auto;html=1;exitX=0;exitY=0.5;exitDx=0;exitDy=0;entryX=0.5;entryY=0;entryDx=0;entryDy=0;rounded=0;curved=0;endArrow=none;endFill=0;" edge="1" parent="1" source="B4XOV4r2v7aRoxTcEQ_I-12" target="B4XOV4r2v7aRoxTcEQ_I-21">
          <mxGeometry relative="1" as="geometry" />
        </mxCell>
        <mxCell id="B4XOV4r2v7aRoxTcEQ_I-11" style="edgeStyle=orthogonalEdgeStyle;orthogonalLoop=1;jettySize=auto;html=1;exitX=1;exitY=0.5;exitDx=0;exitDy=0;entryX=0.5;entryY=0;entryDx=0;entryDy=0;endArrow=none;endFill=0;rounded=0;curved=0;" edge="1" parent="1" source="B4XOV4r2v7aRoxTcEQ_I-12" target="B4XOV4r2v7aRoxTcEQ_I-36">
          <mxGeometry relative="1" as="geometry" />
        </mxCell>
        <mxCell id="B4XOV4r2v7aRoxTcEQ_I-12" value="Компонент j&amp;nbsp;&lt;div&gt;&lt;div&gt;является завершающим&amp;nbsp;&lt;/div&gt;&lt;div&gt;для UI-элемента?&lt;/div&gt;&lt;/div&gt;" style="rhombus;whiteSpace=wrap;html=1;" vertex="1" parent="1">
          <mxGeometry x="700" y="240" width="190" height="100" as="geometry" />
        </mxCell>
        <mxCell id="B4XOV4r2v7aRoxTcEQ_I-13" style="edgeStyle=orthogonalEdgeStyle;orthogonalLoop=1;jettySize=auto;html=1;exitX=0.5;exitY=1;exitDx=0;exitDy=0;entryX=0.5;entryY=0;entryDx=0;entryDy=0;endArrow=none;endFill=0;" edge="1" parent="1" source="B4XOV4r2v7aRoxTcEQ_I-14" target="B4XOV4r2v7aRoxTcEQ_I-16">
          <mxGeometry relative="1" as="geometry" />
        </mxCell>
        <mxCell id="B4XOV4r2v7aRoxTcEQ_I-14" value="Создание UI-элемента&amp;nbsp;&lt;div&gt;element&lt;/div&gt;" style="rounded=0;whiteSpace=wrap;html=1;" vertex="1" parent="1">
          <mxGeometry x="700" y="90" width="190" height="60" as="geometry" />
        </mxCell>
        <mxCell id="B4XOV4r2v7aRoxTcEQ_I-15" style="edgeStyle=orthogonalEdgeStyle;orthogonalLoop=1;jettySize=auto;html=1;exitX=0.5;exitY=1;exitDx=0;exitDy=0;endArrow=none;endFill=0;" edge="1" parent="1" source="B4XOV4r2v7aRoxTcEQ_I-16" target="B4XOV4r2v7aRoxTcEQ_I-12">
          <mxGeometry relative="1" as="geometry" />
        </mxCell>
        <mxCell id="B4XOV4r2v7aRoxTcEQ_I-16" value="j = i + 1" style="rounded=0;whiteSpace=wrap;html=1;" vertex="1" parent="1">
          <mxGeometry x="700" y="160" width="190" height="60" as="geometry" />
        </mxCell>
        <mxCell id="B4XOV4r2v7aRoxTcEQ_I-17" style="edgeStyle=orthogonalEdgeStyle;orthogonalLoop=1;jettySize=auto;html=1;exitX=0.5;exitY=0;exitDx=0;exitDy=0;entryX=0.5;entryY=0;entryDx=0;entryDy=0;endArrow=none;endFill=0;" edge="1" parent="1" source="B4XOV4r2v7aRoxTcEQ_I-18" target="B4XOV4r2v7aRoxTcEQ_I-38">
          <mxGeometry relative="1" as="geometry" />
        </mxCell>
        <UserObject label="&lt;div&gt;&lt;span style=&quot;caret-color: rgb(0, 0, 0); color: rgb(0, 0, 0); font-family: Helvetica; font-size: 12px; font-style: normal; font-variant-caps: normal; font-weight: 400; letter-spacing: normal; text-align: center; text-indent: 0px; text-transform: none; white-space: normal; word-spacing: 0px; -webkit-text-stroke-width: 0px; text-decoration: none; float: none; display: inline !important;&quot;&gt;Увеличить i на 1&lt;/span&gt;&lt;/div&gt;&lt;span style=&quot;caret-color: rgb(0, 0, 0); color: rgb(0, 0, 0); font-family: Helvetica; font-size: 12px; font-style: normal; font-variant-caps: normal; font-weight: 400; letter-spacing: normal; text-align: center; text-indent: 0px; text-transform: none; white-space: normal; word-spacing: 0px; -webkit-text-stroke-width: 0px; text-decoration: none; float: none; display: inline !important;&quot;&gt;Цикл i&amp;nbsp;&lt;/span&gt;" link="&lt;span style=&quot;caret-color: rgb(0, 0, 0); color: rgb(0, 0, 0); font-family: Helvetica; font-size: 12px; font-style: normal; font-variant-caps: normal; font-weight: 400; letter-spacing: normal; orphans: auto; text-align: center; text-indent: 0px; text-transform: none; white-space: normal; widows: auto; word-spacing: 0px; -webkit-text-stroke-width: 0px; background-color: rgb(251, 251, 251); text-decoration: none; display: inline !important; float: none;&quot;&gt;Цикл по i от 0 до&amp;nbsp;&lt;/span&gt;&lt;span style=&quot;caret-color: rgb(0, 0, 0); color: rgb(0, 0, 0); font-family: Helvetica; font-size: 12px; font-style: normal; font-variant-caps: normal; font-weight: 400; letter-spacing: normal; orphans: auto; text-indent: 0px; text-transform: none; white-space: nowrap; widows: auto; word-spacing: 0px; -webkit-text-stroke-width: 0px; text-decoration: none; text-align: left;&quot;&gt;components.count&lt;/span&gt;" id="B4XOV4r2v7aRoxTcEQ_I-18">
          <mxCell style="shape=loopLimit;whiteSpace=wrap;html=1;direction=west;" vertex="1" parent="1">
            <mxGeometry x="1060" y="238" width="190" height="60" as="geometry" />
          </mxCell>
        </UserObject>
        <mxCell id="B4XOV4r2v7aRoxTcEQ_I-56" style="edgeStyle=orthogonalEdgeStyle;rounded=0;orthogonalLoop=1;jettySize=auto;html=1;exitX=0.5;exitY=1;exitDx=0;exitDy=0;entryX=0.5;entryY=0;entryDx=0;entryDy=0;endArrow=none;endFill=0;" edge="1" parent="1">
          <mxGeometry relative="1" as="geometry">
            <mxPoint x="795" y="520" as="sourcePoint" />
            <mxPoint x="605" y="580" as="targetPoint" />
            <Array as="points">
              <mxPoint x="795" y="570" />
              <mxPoint x="605" y="570" />
            </Array>
          </mxGeometry>
        </mxCell>
        <mxCell id="B4XOV4r2v7aRoxTcEQ_I-20" value="Назначение атрибуту&amp;nbsp;&lt;div&gt;UI-элемента значения, соответствующего&amp;nbsp;&lt;/div&gt;&lt;div&gt;components[j + 1]&lt;/div&gt;" style="rounded=0;whiteSpace=wrap;html=1;" vertex="1" parent="1">
          <mxGeometry x="700" y="470" width="190" height="60" as="geometry" />
        </mxCell>
        <mxCell id="B4XOV4r2v7aRoxTcEQ_I-21" value="Компонент j&amp;nbsp;&lt;div&gt;содержится&amp;nbsp;&lt;div&gt;в списке атрибутов&amp;nbsp;&lt;/div&gt;&lt;div&gt;UI-элемента?&lt;/div&gt;&lt;/div&gt;" style="rhombus;whiteSpace=wrap;html=1;" vertex="1" parent="1">
          <mxGeometry x="530" y="320" width="190" height="100" as="geometry" />
        </mxCell>
        <mxCell id="B4XOV4r2v7aRoxTcEQ_I-22" value="Да" style="text;html=1;align=center;verticalAlign=middle;resizable=0;points=[];autosize=1;strokeColor=none;fillColor=none;" vertex="1" parent="1">
          <mxGeometry x="245" y="335" width="40" height="30" as="geometry" />
        </mxCell>
        <mxCell id="B4XOV4r2v7aRoxTcEQ_I-23" style="edgeStyle=orthogonalEdgeStyle;orthogonalLoop=1;jettySize=auto;html=1;endArrow=none;endFill=0;rounded=0;curved=0;exitX=0.5;exitY=1;exitDx=0;exitDy=0;" edge="1" parent="1" source="B4XOV4r2v7aRoxTcEQ_I-24">
          <mxGeometry relative="1" as="geometry">
            <mxPoint x="790" y="230" as="targetPoint" />
            <Array as="points">
              <mxPoint x="605" y="670" />
              <mxPoint x="340" y="670" />
              <mxPoint x="340" y="230" />
            </Array>
          </mxGeometry>
        </mxCell>
        <mxCell id="B4XOV4r2v7aRoxTcEQ_I-24" value="j = j + 1" style="rounded=0;whiteSpace=wrap;html=1;" vertex="1" parent="1">
          <mxGeometry x="510" y="590" width="190" height="60" as="geometry" />
        </mxCell>
        <mxCell id="B4XOV4r2v7aRoxTcEQ_I-25" value="" style="edgeStyle=orthogonalEdgeStyle;orthogonalLoop=1;jettySize=auto;html=1;exitX=0;exitY=0.5;exitDx=0;exitDy=0;entryX=0.5;entryY=0;entryDx=0;entryDy=0;rounded=0;curved=0;endArrow=none;endFill=0;" edge="1" parent="1" source="B4XOV4r2v7aRoxTcEQ_I-21" target="B4XOV4r2v7aRoxTcEQ_I-28">
          <mxGeometry relative="1" as="geometry">
            <mxPoint x="510" y="390" as="sourcePoint" />
            <mxPoint x="605" y="580" as="targetPoint" />
            <Array as="points" />
          </mxGeometry>
        </mxCell>
        <mxCell id="B4XOV4r2v7aRoxTcEQ_I-26" style="edgeStyle=orthogonalEdgeStyle;orthogonalLoop=1;jettySize=auto;html=1;exitX=1;exitY=0.5;exitDx=0;exitDy=0;rounded=0;curved=0;endArrow=none;endFill=0;" edge="1" parent="1" source="B4XOV4r2v7aRoxTcEQ_I-28" target="B4XOV4r2v7aRoxTcEQ_I-32">
          <mxGeometry relative="1" as="geometry" />
        </mxCell>
        <mxCell id="B4XOV4r2v7aRoxTcEQ_I-57" style="edgeStyle=orthogonalEdgeStyle;rounded=0;orthogonalLoop=1;jettySize=auto;html=1;exitX=0;exitY=0.5;exitDx=0;exitDy=0;entryX=0.5;entryY=0;entryDx=0;entryDy=0;endArrow=none;endFill=0;" edge="1" parent="1" source="B4XOV4r2v7aRoxTcEQ_I-28" target="B4XOV4r2v7aRoxTcEQ_I-24">
          <mxGeometry relative="1" as="geometry">
            <Array as="points">
              <mxPoint x="350" y="440" />
              <mxPoint x="350" y="550" />
              <mxPoint x="460" y="550" />
              <mxPoint x="460" y="570" />
              <mxPoint x="605" y="570" />
            </Array>
          </mxGeometry>
        </mxCell>
        <mxCell id="B4XOV4r2v7aRoxTcEQ_I-28" value="Компонент j содержится&amp;nbsp;&lt;div&gt;в списке UI-элементов?&lt;/div&gt;" style="rhombus;whiteSpace=wrap;html=1;" vertex="1" parent="1">
          <mxGeometry x="360" y="390" width="190" height="100" as="geometry" />
        </mxCell>
        <mxCell id="B4XOV4r2v7aRoxTcEQ_I-29" value="Да" style="text;html=1;align=center;verticalAlign=middle;resizable=0;points=[];autosize=1;strokeColor=none;fillColor=none;" vertex="1" parent="1">
          <mxGeometry x="730" y="340" width="40" height="30" as="geometry" />
        </mxCell>
        <mxCell id="B4XOV4r2v7aRoxTcEQ_I-30" value="Да" style="text;html=1;align=center;verticalAlign=middle;resizable=0;points=[];autosize=1;strokeColor=none;fillColor=none;" vertex="1" parent="1">
          <mxGeometry x="900" y="260" width="40" height="30" as="geometry" />
        </mxCell>
        <mxCell id="B4XOV4r2v7aRoxTcEQ_I-58" style="edgeStyle=orthogonalEdgeStyle;rounded=0;orthogonalLoop=1;jettySize=auto;html=1;exitX=0.5;exitY=1;exitDx=0;exitDy=0;entryX=0.5;entryY=0;entryDx=0;entryDy=0;endArrow=none;endFill=0;" edge="1" parent="1" source="B4XOV4r2v7aRoxTcEQ_I-32" target="B4XOV4r2v7aRoxTcEQ_I-24">
          <mxGeometry relative="1" as="geometry">
            <Array as="points">
              <mxPoint x="585" y="550" />
              <mxPoint x="460" y="550" />
              <mxPoint x="460" y="570" />
              <mxPoint x="605" y="570" />
            </Array>
          </mxGeometry>
        </mxCell>
        <mxCell id="B4XOV4r2v7aRoxTcEQ_I-32" value="&lt;span style=&quot;text-align: left; white-space: nowrap;&quot;&gt;j = createView(&lt;/span&gt;element,&amp;nbsp;&lt;div&gt;components&lt;/div&gt;&lt;div&gt;[j...&amp;nbsp;components.count])&lt;/div&gt;" style="shape=process;whiteSpace=wrap;html=1;backgroundOutline=1;" vertex="1" parent="1">
          <mxGeometry x="490" y="478" width="190" height="60" as="geometry" />
        </mxCell>
        <mxCell id="B4XOV4r2v7aRoxTcEQ_I-33" value="Да" style="text;html=1;align=center;verticalAlign=middle;resizable=0;points=[];autosize=1;strokeColor=none;fillColor=none;" vertex="1" parent="1">
          <mxGeometry x="550" y="413" width="40" height="30" as="geometry" />
        </mxCell>
        <mxCell id="B4XOV4r2v7aRoxTcEQ_I-34" value="Инициализация возвращаемой переменной finalIndex&amp;nbsp;" style="rounded=0;whiteSpace=wrap;html=1;" vertex="1" parent="1">
          <mxGeometry x="60" y="150" width="190" height="60" as="geometry" />
        </mxCell>
        <mxCell id="B4XOV4r2v7aRoxTcEQ_I-51" style="edgeStyle=orthogonalEdgeStyle;rounded=0;orthogonalLoop=1;jettySize=auto;html=1;exitX=0.5;exitY=1;exitDx=0;exitDy=0;entryX=0.5;entryY=0;entryDx=0;entryDy=0;endArrow=none;endFill=0;" edge="1" parent="1" source="B4XOV4r2v7aRoxTcEQ_I-36" target="B4XOV4r2v7aRoxTcEQ_I-50">
          <mxGeometry relative="1" as="geometry" />
        </mxCell>
        <mxCell id="B4XOV4r2v7aRoxTcEQ_I-36" value="finalIndex = j" style="rounded=0;whiteSpace=wrap;html=1;" vertex="1" parent="1">
          <mxGeometry x="850" y="320" width="190" height="60" as="geometry" />
        </mxCell>
        <mxCell id="B4XOV4r2v7aRoxTcEQ_I-37" value="Конец" style="strokeWidth=1;html=1;shape=mxgraph.flowchart.terminator;whiteSpace=wrap;rounded=0;" vertex="1" parent="1">
          <mxGeometry x="1060" y="418" width="190" height="60" as="geometry" />
        </mxCell>
        <mxCell id="B4XOV4r2v7aRoxTcEQ_I-38" value="Возврат finalIndex" style="rounded=0;whiteSpace=wrap;html=1;" vertex="1" parent="1">
          <mxGeometry x="1060" y="328" width="190" height="60" as="geometry" />
        </mxCell>
        <mxCell id="B4XOV4r2v7aRoxTcEQ_I-39" style="edgeStyle=orthogonalEdgeStyle;orthogonalLoop=1;jettySize=auto;html=1;exitX=0.5;exitY=1;exitDx=0;exitDy=0;entryX=0.5;entryY=0;entryDx=0;entryDy=0;entryPerimeter=0;endArrow=none;endFill=0;" edge="1" parent="1" source="B4XOV4r2v7aRoxTcEQ_I-38" target="B4XOV4r2v7aRoxTcEQ_I-37">
          <mxGeometry relative="1" as="geometry" />
        </mxCell>
        <mxCell id="B4XOV4r2v7aRoxTcEQ_I-40" value="" style="edgeStyle=orthogonalEdgeStyle;orthogonalLoop=1;jettySize=auto;html=1;exitX=1;exitY=0.5;exitDx=0;exitDy=0;entryX=0.5;entryY=0;entryDx=0;entryDy=0;rounded=0;curved=0;endArrow=none;endFill=0;" edge="1" parent="1" source="B4XOV4r2v7aRoxTcEQ_I-21" target="B4XOV4r2v7aRoxTcEQ_I-42">
          <mxGeometry relative="1" as="geometry">
            <mxPoint x="700" y="390" as="sourcePoint" />
            <mxPoint x="795" y="520" as="targetPoint" />
          </mxGeometry>
        </mxCell>
        <mxCell id="B4XOV4r2v7aRoxTcEQ_I-41" style="edgeStyle=orthogonalEdgeStyle;orthogonalLoop=1;jettySize=auto;html=1;exitX=0.5;exitY=1;exitDx=0;exitDy=0;endArrow=none;endFill=0;" edge="1" parent="1" source="B4XOV4r2v7aRoxTcEQ_I-42" target="B4XOV4r2v7aRoxTcEQ_I-20">
          <mxGeometry relative="1" as="geometry" />
        </mxCell>
        <mxCell id="B4XOV4r2v7aRoxTcEQ_I-42" value="j = j + 1" style="rounded=0;whiteSpace=wrap;html=1;" vertex="1" parent="1">
          <mxGeometry x="700" y="398" width="190" height="60" as="geometry" />
        </mxCell>
        <mxCell id="B4XOV4r2v7aRoxTcEQ_I-54" style="edgeStyle=orthogonalEdgeStyle;rounded=0;orthogonalLoop=1;jettySize=auto;html=1;exitX=0.5;exitY=1;exitDx=0;exitDy=0;entryX=0.5;entryY=1;entryDx=0;entryDy=0;endArrow=none;endFill=0;" edge="1" parent="1" source="B4XOV4r2v7aRoxTcEQ_I-43" target="B4XOV4r2v7aRoxTcEQ_I-18">
          <mxGeometry relative="1" as="geometry" />
        </mxCell>
        <mxCell id="B4XOV4r2v7aRoxTcEQ_I-43" value="Размещение&amp;nbsp;&lt;div&gt;UI-элемента element&amp;nbsp;&lt;div&gt;на корневом представлении rootView&lt;/div&gt;&lt;/div&gt;" style="rounded=0;whiteSpace=wrap;html=1;" vertex="1" parent="1">
          <mxGeometry x="1060" y="148" width="190" height="60" as="geometry" />
        </mxCell>
        <mxCell id="B4XOV4r2v7aRoxTcEQ_I-45" value="" style="edgeStyle=orthogonalEdgeStyle;orthogonalLoop=1;jettySize=auto;html=1;exitX=0;exitY=0.5;exitDx=0;exitDy=0;rounded=0;curved=0;endArrow=none;endFill=0;" edge="1" parent="1" source="B4XOV4r2v7aRoxTcEQ_I-9" target="B4XOV4r2v7aRoxTcEQ_I-44">
          <mxGeometry relative="1" as="geometry">
            <Array as="points" />
            <mxPoint x="60" y="360" as="sourcePoint" />
            <mxPoint x="155" y="1270" as="targetPoint" />
          </mxGeometry>
        </mxCell>
        <mxCell id="B4XOV4r2v7aRoxTcEQ_I-44" value="А" style="ellipse;whiteSpace=wrap;html=1;aspect=fixed;" vertex="1" parent="1">
          <mxGeometry y="380" width="80" height="80" as="geometry" />
        </mxCell>
        <mxCell id="B4XOV4r2v7aRoxTcEQ_I-46" value="Б" style="ellipse;whiteSpace=wrap;html=1;aspect=fixed;" vertex="1" parent="1">
          <mxGeometry x="244.5" y="380" width="80" height="80" as="geometry" />
        </mxCell>
        <mxCell id="B4XOV4r2v7aRoxTcEQ_I-49" style="edgeStyle=orthogonalEdgeStyle;rounded=0;orthogonalLoop=1;jettySize=auto;html=1;exitX=0.5;exitY=1;exitDx=0;exitDy=0;entryX=0.5;entryY=0;entryDx=0;entryDy=0;endArrow=none;endFill=0;" edge="1" parent="1" source="B4XOV4r2v7aRoxTcEQ_I-48" target="B4XOV4r2v7aRoxTcEQ_I-14">
          <mxGeometry relative="1" as="geometry" />
        </mxCell>
        <mxCell id="B4XOV4r2v7aRoxTcEQ_I-48" value="Б" style="ellipse;whiteSpace=wrap;html=1;aspect=fixed;" vertex="1" parent="1">
          <mxGeometry x="755" width="80" height="80" as="geometry" />
        </mxCell>
        <mxCell id="B4XOV4r2v7aRoxTcEQ_I-50" value="А" style="ellipse;whiteSpace=wrap;html=1;aspect=fixed;" vertex="1" parent="1">
          <mxGeometry x="905" y="398" width="80" height="80" as="geometry" />
        </mxCell>
        <mxCell id="B4XOV4r2v7aRoxTcEQ_I-53" style="edgeStyle=orthogonalEdgeStyle;rounded=0;orthogonalLoop=1;jettySize=auto;html=1;exitX=0.5;exitY=1;exitDx=0;exitDy=0;endArrow=none;endFill=0;" edge="1" parent="1" source="B4XOV4r2v7aRoxTcEQ_I-52" target="B4XOV4r2v7aRoxTcEQ_I-43">
          <mxGeometry relative="1" as="geometry" />
        </mxCell>
        <mxCell id="B4XOV4r2v7aRoxTcEQ_I-52" value="А" style="ellipse;whiteSpace=wrap;html=1;aspect=fixed;" vertex="1" parent="1">
          <mxGeometry x="1115" y="48" width="80" height="80" as="geometry" />
        </mxCell>
        <mxCell id="B4XOV4r2v7aRoxTcEQ_I-55" style="edgeStyle=orthogonalEdgeStyle;rounded=0;orthogonalLoop=1;jettySize=auto;html=1;exitX=0.5;exitY=1;exitDx=0;exitDy=0;" edge="1" parent="1" source="B4XOV4r2v7aRoxTcEQ_I-42" target="B4XOV4r2v7aRoxTcEQ_I-42">
          <mxGeometry relative="1" as="geometry" />
        </mxCell>
      </root>
    </mxGraphModel>
  </diagram>
</mxfile>
